<svg width="29" height="29" viewBox="0 0 29 29" fill="none" xmlns="http://www.w3.org/2000/svg">
<g id="ArrowUp">
<path id="Vector" fill-rule="evenodd" clip-rule="evenodd" d="M9.50326 9.28327C9.49787 9.01816 9.598 8.76177 9.78163 8.57047C9.96525 8.37917 10.2173 8.26864 10.4824 8.26317L18.9659 8.08954C19.2311 8.08416 19.4874 8.18429 19.6787 8.36791C19.87 8.55153 19.9806 8.80362 19.986 9.06872L20.1597 17.5522C20.1605 17.8144 20.0583 18.0665 19.8751 18.254C19.6918 18.4416 19.4423 18.5497 19.1801 18.5551C18.918 18.5605 18.6642 18.4627 18.4735 18.2827C18.2827 18.1028 18.1703 17.8552 18.1604 17.5931L18.0362 11.5232L10.013 19.8817C9.82932 20.073 9.57717 20.1835 9.31201 20.189C9.04685 20.1944 8.79039 20.0943 8.59906 19.9106C8.40772 19.7269 8.29718 19.4748 8.29176 19.2096C8.28633 18.9445 8.38646 18.688 8.57012 18.4967L16.5933 10.1382L10.5234 10.2625C10.2582 10.2678 10.0019 10.1677 9.81056 9.98409C9.61926 9.80046 9.50873 9.54838 9.50326 9.28327Z" fill="#EBEBEB"/>
</g>
</svg>
